# xmcd
#
# Track frame offsets:
#	150
#	22108
#	47188
#	71570
#	94600
#	115385
#	134240
#	153728
#	173140
#	198160
#	219073
#
# Disc length: 3190 seconds
#
# Revision: 33
# Processed by: cddbd v1.5.2PL0 Copyright (c) Steve Scherf et al.
# Submitted via: EasyCDDAExtractor 15.3.0.1
#
DISCID=9f0c740b
DTITLE=Whitney Houston - Whitney
DYEAR=1987
DGENRE=Pop
TTITLE0=I Wanna Dance With Somebody (Who Loves Me)
TTITLE1=Just The Lonely Talking Again
TTITLE2=Love Will Save The Day
TTITLE3=Didn't We Almost Have It All
TTITLE4=So Emotional
TTITLE5=Where You Are
TTITLE6=Love Is A Contact Sport
TTITLE7=You're Still My Man
TTITLE8=For The Love Of You
TTITLE9=Where Do Broken Hearts Go
TTITLE10=I Know Him So Well
EXTD=
EXTT0=
EXTT1=
EXTT2=
EXTT3=
EXTT4=
EXTT5=
EXTT6=
EXTT7=
EXTT8=
EXTT9=
EXTT10=
PLAYORDER=
